HIERARCHY
ROOT Hips
{
	OFFSET 53.234699 -6.996596 96.045898
	CHANNELS 6 Xposition Yposition Zposition Xrotation Yrotation Zrotation
	JOINT spine
	{
		OFFSET 0.000000 -0.467660 8.132492
		CHANNELS 3 Xrotation Yrotation Zrotation
		JOINT spine1
		{
			OFFSET 0.000000 -0.000001 10.349800
			CHANNELS 3 Xrotation Yrotation Zrotation
			JOINT spine2
			{
				OFFSET 0.000000 -0.000002 9.916992
				CHANNELS 3 Xrotation Yrotation Zrotation
				JOINT Neck
				{
					OFFSET 0.000000 -1.213904 25.461006
					CHANNELS 3 Xrotation Yrotation Zrotation
					JOINT Head
					{
						OFFSET 0.000000 -0.000001 7.692444
						CHANNELS 3 Xrotation Yrotation Zrotation
						End Site
						{
							OFFSET 0.000000 6.140627 18.619995
						}
					}
				}
				JOINT RightShoulder
				{
					OFFSET -4.175751 0.581443 10.709602
					CHANNELS 3 Xrotation Yrotation Zrotation
					JOINT RightArm
					{
						OFFSET 0.000000 -0.000002 14.046600
						CHANNELS 3 Xrotation Yrotation Zrotation
						JOINT RightArmRoll
						{
							OFFSET 0.000000 -0.000001 7.090973
							CHANNELS 3 Xrotation Yrotation Zrotation
							JOINT RightForeArm
							{
								OFFSET 0.000000 -0.000003 20.653503
								CHANNELS 3 Xrotation Yrotation Zrotation
								JOINT RightForeArmRoll
								{
									OFFSET 0.000000 -0.000001 7.957184
									CHANNELS 3 Xrotation Yrotation Zrotation
									JOINT RightHand
									{
										OFFSET 0.000000 -0.000003 15.968292
										CHANNELS 3 Xrotation Yrotation Zrotation
										End Site
										{
											OFFSET 0.000000 0.000000 0.100006
										}
									}
								}
							}
						}
					}
				}
				JOINT LeftShoulder
				{
					OFFSET 4.175751 0.581443 10.709602
					CHANNELS 3 Xrotation Yrotation Zrotation
					JOINT LeftArm
					{
						OFFSET 0.000000 -0.000002 14.046600
						CHANNELS 3 Xrotation Yrotation Zrotation
						JOINT LeftArmRoll
						{
							OFFSET 0.000000 -0.000001 7.090973
							CHANNELS 3 Xrotation Yrotation Zrotation
							JOINT LeftForeArm
							{
								OFFSET 0.000000 -0.000003 20.653503
								CHANNELS 3 Xrotation Yrotation Zrotation
								JOINT LeftForeArmRoll
								{
									OFFSET 0.000000 -0.000001 7.957184
									CHANNELS 3 Xrotation Yrotation Zrotation
									JOINT LeftHand
									{
										OFFSET 0.000000 -0.000003 15.968292
										CHANNELS 3 Xrotation Yrotation Zrotation
										End Site
										{
											OFFSET 0.000000 0.000000 0.100006
										}
									}
								}
							}
						}
					}
				}
			}
		}
	}
	JOINT RightUpLeg
	{
		OFFSET -7.208340 1.108840 -1.321823
		CHANNELS 3 Xrotation Yrotation Zrotation
		JOINT RightUpLegRoll
		{
			OFFSET 0.000000 -0.000003 18.723801
			CHANNELS 3 Xrotation Yrotation Zrotation
			JOINT RightLeg
			{
				OFFSET 0.000000 0.000004 -23.186600
				CHANNELS 3 Xrotation Yrotation Zrotation
				JOINT RightLegRoll
				{
					OFFSET 0.000000 -0.000004 23.262398
					CHANNELS 3 Xrotation Yrotation Zrotation
					JOINT RightFoot
					{
						OFFSET 0.000000 -0.000003 19.362099
						CHANNELS 3 Xrotation Yrotation Zrotation
						JOINT RightToeBase
						{
							OFFSET 0.000000 -0.000003 16.185699
							CHANNELS 3 Xrotation Yrotation Zrotation
							End Site
							{
								OFFSET 0.006859 0.903521 7.838623
							}
						}
					}
				}
			}
		}
	}
	JOINT LeftUpLeg
	{
		OFFSET 7.208340 1.108840 -1.321823
		CHANNELS 3 Xrotation Yrotation Zrotation
		JOINT LeftUpLegRoll
		{
			OFFSET 0.000000 -0.000003 18.723900
			CHANNELS 3 Xrotation Yrotation Zrotation
			JOINT LeftLeg
			{
				OFFSET 0.000000 -0.000004 23.186501
				CHANNELS 3 Xrotation Yrotation Zrotation
				JOINT LeftLegRoll
				{
					OFFSET 0.000000 -0.000004 23.477493
					CHANNELS 3 Xrotation Yrotation Zrotation
					JOINT LeftFoot
					{
						OFFSET 0.000000 -0.000003 19.147003
						CHANNELS 3 Xrotation Yrotation Zrotation
						JOINT LeftToeBase
						{
							OFFSET 0.000000 -0.000003 16.185699
							CHANNELS 3 Xrotation Yrotation Zrotation
							End Site
							{
								OFFSET -0.030746 0.903521 7.838623
							}
						}
					}
				}
			}
		}
	}
}
MOTION
Frames: 5
Frame Time: 0.041667
53.179508 -6.851366 96.049782 -3.373679 1.022894 0.087520 -1.254230 -0.505491 0.027565 1.478210 -1.011523 0.051261 3.123397 -1.010726 0.063310 11.366853 6.505385 -4.035485 -4.571821 -4.909953 -4.116000 -15.894216 -57.811233 -18.757865 -45.390640 -117.377607 -17.253635 -0.000002 -0.000002 -0.000009 0.492765 -2.991499 -0.456478 0.000000 -0.000002 -3.002210 -5.000189 -7.999720 0.000058 -16.683785 62.482755 19.764583 -46.372565 114.165908 29.521993 -0.000002 -0.000006 0.000003 0.045686 5.957238 1.300808 -0.000001 0.000002 3.034941 -5.000206 7.999242 -0.000108 -2.434850 -173.514809 2.711108 -179.999991 0.000006 -0.985004 168.444855 -0.646620 -0.617209 -0.000001 0.000001 0.073441 69.733301 6.249542 3.743341 25.456860 -7.355622 -0.000004 -0.975531 172.356094 -1.939157 -0.000019 -0.000005 -0.933834 -13.709460 0.828743 0.734317 -0.000001 0.000001 -0.228846 73.293701 -6.079704 -4.136617 25.459986 7.355620 -0.004518 
53.178406 -6.855457 96.049194 -3.371349 1.023106 0.087749 -1.255998 -0.505240 0.027113 1.476630 -1.010754 0.050160 3.121825 -1.009979 0.062204 11.380212 6.495246 -4.033112 -4.575165 -4.899684 -4.113029 -15.912483 -57.818958 -18.779788 -45.416817 -117.380831 -17.234242 0.000000 -0.000003 -0.000008 0.464827 -2.955752 -0.454847 -0.000001 -0.000002 -3.002208 -5.000191 -7.999717 0.000061 -16.685478 62.475262 19.766458 -46.332906 114.166243 29.405460 0.000000 -0.000007 0.000001 0.045506 5.913478 1.302464 -0.000001 0.000001 3.034940 -5.000203 7.999243 -0.000109 -2.430058 -173.514795 2.714170 -179.999991 0.000005 -0.985004 168.456152 -0.650569 -0.616872 -0.000001 0.000000 0.072705 69.725706 6.249736 3.745504 25.456856 -7.355622 -0.000003 -0.976027 172.357092 -1.937988 -0.000020 -0.000004 -0.933834 -13.709157 0.828104 0.734318 -0.000001 0.000001 -0.228846 73.295388 -6.080859 -4.136094 25.459983 7.355620 -0.004518 
53.182602 -6.856027 96.049095 -3.369036 1.023319 0.088030 -1.257808 -0.504947 0.026661 1.475059 -1.009915 0.049042 3.120245 -1.009162 0.061081 11.393759 6.484582 -4.030722 -4.578717 -4.889221 -4.110020 -15.930839 -57.827189 -18.801827 -45.444862 -117.383549 -17.217836 -0.000002 -0.000002 -0.000007 0.436067 -2.920756 -0.453232 -0.000001 -0.000002 -3.002209 -5.000192 -7.999718 0.000056 -16.686772 62.467626 19.767865 -46.292539 114.166318 29.288787 -0.000002 -0.000007 0.000001 0.045333 5.869989 1.304065 -0.000001 0.000002 3.034941 -5.000203 7.999242 -0.000108 -2.425383 -173.513771 2.717206 -179.999991 0.000005 -0.985004 168.467039 -0.653538 -0.617348 -0.000001 0.000000 0.071979 69.718220 6.249969 3.747568 25.456861 -7.355621 -0.000003 -0.976579 172.357092 -1.936734 -0.000020 -0.000004 -0.933834 -13.708956 0.827418 0.734318 -0.000001 0.000001 -0.228846 73.297205 -6.082059 -4.135572 25.459988 7.355619 -0.004517 
53.186508 -6.857348 96.048103 -3.366735 1.023521 0.088347 -1.259648 -0.504625 0.026209 1.473488 -1.009016 0.047911 3.118673 -1.008285 0.059945 11.407401 6.473563 -4.028297 -4.582417 -4.878619 -4.106960 -15.949269 -57.835808 -18.823964 -45.473385 -117.386472 -17.202555 0.000001 -0.000002 -0.000006 0.406741 -2.886287 -0.451609 -0.000002 -0.000004 -3.002212 -5.000189 -7.999720 0.000057 -16.687660 62.459717 19.768809 -46.251831 114.166257 29.172090 -0.000001 -0.000008 -0.000002 0.045170 5.826688 1.305647 0.000001 0.000001 3.034938 -5.000205 7.999243 -0.000109 -2.420788 -173.512746 2.720243 -179.999991 0.000006 -0.985004 168.477831 -0.657486 -0.617027 -0.000002 0.000001 0.071262 69.710857 6.250240 3.749630 25.456854 -7.355624 -0.000003 -0.977170 172.358102 -1.935462 -0.000020 -0.000004 -0.933834 -13.708851 0.826697 0.734318 -0.000002 0.000001 -0.228846 73.299124 -6.083261 -4.134946 25.459989 7.355619 -0.004517 
53.177109 -6.859489 96.046394 -3.364447 1.023713 0.088684 -1.261500 -0.504286 0.025757 1.471918 -1.008087 0.046773 3.117103 -1.007377 0.058801 11.421136 6.462337 -4.025865 -4.586196 -4.867938 -4.103891 -15.967758 -57.844722 -18.846186 -45.501887 -117.389409 -17.187563 -0.000000 -0.000002 -0.000007 0.377091 -2.852117 -0.449968 -0.000001 -0.000003 -3.002211 -5.000192 -7.999717 0.000056 -16.688398 62.451725 19.769566 -46.209150 114.166769 29.053511 -0.000002 -0.000007 0.000002 0.045010 5.783499 1.307194 0.000001 0.000001 3.034941 -5.000203 7.999242 -0.000111 -2.416242 -173.512719 2.723327 -179.999991 0.000006 -0.985004 168.488623 -0.660441 -0.617501 -0.000001 0.000000 0.070548 69.703508 6.250545 3.751700 25.456854 -7.355623 -0.000002 -0.977787 172.358089 -1.934150 -0.000019 -0.000004 -0.933834 -13.708751 0.825958 0.734318 -0.000002 0.000001 -0.228846 73.300962 -6.084523 -4.134432 25.459984 7.355619 -0.004518 
